<svg width="25" height="25" viewBox="0 0 25 25" fill="none" xmlns="http://www.w3.org/2000/svg">
<path fill-rule="evenodd" clip-rule="evenodd" d="M2.61628 21.9543C2.61628 21.4963 5.15394 12.1582 5.52508 10.6721C5.60004 10.3714 5.58725 10.0007 5.88526 10.0007H19.1202C19.4146 10.0007 19.3945 10.3224 19.4639 10.6091L21.6195 18.8615C21.7621 19.4052 21.87 19.8178 22.0126 20.3616C22.1899 21.0382 22.8847 22.5016 21.6524 22.5016H3.35125C2.85213 22.5016 2.61628 22.0173 2.61628 21.9543V21.9543ZM12.5018 2.50017C13.1015 2.50017 13.8091 2.70124 14.2972 2.97049C14.7488 3.21876 15.1711 3.64536 15.4399 4.06497C16.014 4.96014 16.3979 6.39555 16.4235 7.50052H8.58015C8.58015 6.96902 8.74653 6.07035 8.87268 5.59305C9.01894 5.03707 9.26759 4.4671 9.54183 4.04574C9.80511 3.64186 10.2658 3.18204 10.701 2.96699C11.222 2.70998 11.8528 2.50017 12.5018 2.50017V2.50017ZM5.9657 7.03196V7.50052C4.58717 7.50052 3.68034 7.26974 3.30189 8.54605C3.10992 9.1947 2.98377 9.76467 2.81191 10.4221L0.899517 17.8124C0.563113 19.0992 0 20.8109 0 22.1099C0 22.9964 0.475355 23.6205 0.959851 24.0839C1.23044 24.3409 1.44618 24.5332 1.79721 24.6888C2.12813 24.8357 2.54498 25 3.02399 25H21.9778C23.4313 25 25 23.5716 25 22.1099C25 20.8109 24.4424 19.1202 24.1005 17.8124C23.7805 16.5886 23.4514 15.3262 23.137 14.1251L21.7164 8.60899C21.3434 7.27498 20.5463 7.50052 19.0361 7.50052C19.0361 3.8167 16.8915 0 12.9077 0C11.5493 0 10.6479 0.0384642 9.44859 0.676621C7.31132 1.81656 5.96204 4.60347 5.96204 7.03021L5.9657 7.03196Z" fill="white"/>
</svg>
