<svg width="25" height="25" viewBox="0 0 25 25" fill="none" xmlns="http://www.w3.org/2000/svg">
<path d="M24.6495 0.350467C24.1822 -0.116822 23.4813 -0.116822 23.014 0.350467L12.5 10.8645L1.98598 0.350467C1.51869 -0.116822 0.817757 -0.116822 0.350467 0.350467C-0.116822 0.817757 -0.116822 1.51869 0.350467 1.98598L10.8645 12.5L0.350467 23.014C-0.116822 23.4813 -0.116822 24.1822 0.350467 24.6495C0.817757 25.1168 1.51869 25.1168 1.98598 24.6495L12.5 14.1355L23.014 24.6495C23.4813 25.1168 24.1822 25.1168 24.6495 24.6495C25.1168 24.1822 25.1168 23.4813 24.6495 23.014L14.1355 12.5L24.6495 1.98598C25.1168 1.5771 25.1168 0.817757 24.6495 0.350467Z" fill="black"/>
</svg>
