<svg width="667" height="549" viewBox="0 0 667 549" fill="none" xmlns="http://www.w3.org/2000/svg">
<path fill-rule="evenodd" clip-rule="evenodd" d="M474.953 4C474.953 1.79086 476.744 0 478.953 0H622.224C624.433 0 626.224 1.79086 626.224 4V544.602C626.224 546.812 624.433 548.602 622.224 548.602H478.953C476.744 548.602 474.953 546.812 474.953 544.602V4ZM482.953 8V540.602H618.224V8H482.953Z" fill="black"/>
<path fill-rule="evenodd" clip-rule="evenodd" d="M477.486 387.886C477.486 387.057 478.158 386.386 478.986 386.386H622.189C623.017 386.386 623.689 387.057 623.689 387.886V466.261C623.689 467.09 623.017 467.761 622.189 467.761H478.986C478.158 467.761 477.486 467.09 477.486 466.261V387.886ZM480.486 389.386V464.761H620.689V389.386H480.486Z" fill="black"/>
<path fill-rule="evenodd" clip-rule="evenodd" d="M188.479 4C188.479 1.79086 190.269 0 192.479 0H478.849C481.058 0 482.849 1.79086 482.849 4V544.602C482.849 546.812 481.058 548.602 478.849 548.602H192.479C190.269 548.602 188.479 546.812 188.479 544.602V4ZM196.479 8V540.602H474.849V8H196.479Z" fill="black"/>
<path fill-rule="evenodd" clip-rule="evenodd" d="M335.68 99.0586H478.951V107.059H335.68V99.0586Z" fill="black"/>
<path fill-rule="evenodd" clip-rule="evenodd" d="M360.697 107.929C360.697 97.625 369.039 89.2827 379.343 89.2827C389.647 89.2827 397.989 97.625 397.989 107.929C397.989 116.86 391.723 124.317 383.343 126.146V135.266C383.343 137.475 381.552 139.266 379.343 139.266C377.134 139.266 375.343 137.475 375.343 135.266V122.575C375.343 120.366 377.134 118.575 379.343 118.575C385.229 118.575 389.989 113.815 389.989 107.929C389.989 102.043 385.229 97.2827 379.343 97.2827C373.458 97.2827 368.697 102.043 368.697 107.929C368.697 110.138 366.906 111.929 364.697 111.929C362.488 111.929 360.697 110.138 360.697 107.929Z" fill="black"/>
<path fill-rule="evenodd" clip-rule="evenodd" d="M331.68 185.652C331.68 183.443 333.471 181.652 335.68 181.652H457.308C459.517 181.652 461.308 183.443 461.308 185.652C461.308 187.862 459.517 189.652 457.308 189.652H335.68C333.471 189.652 331.68 187.862 331.68 185.652Z" fill="black"/>
<path fill-rule="evenodd" clip-rule="evenodd" d="M377.172 131.907C378.494 131.052 380.194 131.052 381.515 131.907L459.479 182.293C461.335 183.492 461.867 185.968 460.668 187.824C459.468 189.679 456.992 190.211 455.137 189.012L379.344 140.029L337.852 166.854C335.997 168.053 333.52 167.522 332.321 165.666C331.122 163.811 331.653 161.335 333.508 160.136L377.172 131.907Z" fill="black"/>
<path d="M335.681 4H192.479V544.602H335.681V4Z" fill="#57A695"/>
<path fill-rule="evenodd" clip-rule="evenodd" d="M188.479 0H339.681V548.602H188.479V0ZM196.479 8V540.602H331.681V8H196.479Z" fill="#1D1D1B"/>
<path d="M192.48 4H49.2773V544.602H192.48V4Z" fill="#57A695"/>
<path fill-rule="evenodd" clip-rule="evenodd" d="M45.2773 0H196.48V548.602H45.2773V0ZM53.2773 8V540.602H188.48V8H53.2773Z" fill="#1D1D1B"/>
<path fill-rule="evenodd" clip-rule="evenodd" d="M224.379 207.168C225.207 207.168 225.879 207.84 225.879 208.668V348.407C225.879 349.235 225.207 349.907 224.379 349.907C223.55 349.907 222.879 349.235 222.879 348.407V208.668C222.879 207.84 223.55 207.168 224.379 207.168Z" fill="white"/>
<path fill-rule="evenodd" clip-rule="evenodd" d="M477.486 466.261C477.486 465.433 478.158 464.761 478.986 464.761H622.189C623.017 464.761 623.689 465.433 623.689 466.261V544.637C623.689 545.465 623.017 546.137 622.189 546.137H478.986C478.158 546.137 477.486 545.465 477.486 544.637V466.261ZM480.486 467.761V543.137H620.689V467.761H480.486Z" fill="black"/>
<path fill-rule="evenodd" clip-rule="evenodd" d="M550.57 500.586C547.9 500.586 545.725 502.762 545.725 505.432C545.725 508.102 547.9 510.277 550.57 510.277C553.24 510.277 555.416 508.102 555.416 505.432C555.416 502.762 553.24 500.586 550.57 500.586ZM542.725 505.432C542.725 501.105 546.243 497.586 550.57 497.586C554.897 497.586 558.416 501.105 558.416 505.432C558.416 509.759 554.897 513.277 550.57 513.277C546.243 513.277 542.725 509.759 542.725 505.432Z" fill="black"/>
<path fill-rule="evenodd" clip-rule="evenodd" d="M474.986 387.886C474.986 385.677 476.777 383.886 478.986 383.886H622.189C624.398 383.886 626.189 385.677 626.189 387.886V466.261C626.189 468.47 624.398 470.261 622.189 470.261H478.986C476.777 470.261 474.986 468.47 474.986 466.261V387.886ZM482.986 391.886V462.261H618.189V391.886H482.986Z" fill="black"/>
<path fill-rule="evenodd" clip-rule="evenodd" d="M550.57 424.711C549.281 424.711 548.225 425.767 548.225 427.056C548.225 428.346 549.281 429.402 550.57 429.402C551.86 429.402 552.916 428.346 552.916 427.056C552.916 425.767 551.86 424.711 550.57 424.711ZM540.225 427.056C540.225 421.348 544.862 416.711 550.57 416.711C556.278 416.711 560.916 421.349 560.916 427.056C560.916 432.764 556.278 437.402 550.57 437.402C544.862 437.402 540.225 432.764 540.225 427.056Z" fill="black"/>
<path fill-rule="evenodd" clip-rule="evenodd" d="M474.986 309.27C474.986 307.061 476.777 305.27 478.986 305.27H622.189C624.398 305.27 626.189 307.061 626.189 309.27V387.646C626.189 389.855 624.398 391.646 622.189 391.646H478.986C476.777 391.646 474.986 389.855 474.986 387.646V309.27ZM482.986 313.27V383.646H618.189V313.27H482.986Z" fill="black"/>
<path fill-rule="evenodd" clip-rule="evenodd" d="M491.312 211.172C491.312 208.963 493.103 207.172 495.312 207.172H605.861C608.071 207.172 609.861 208.963 609.861 211.172V231.306C609.861 233.515 608.071 235.306 605.861 235.306H495.312C493.103 235.306 491.312 233.515 491.312 231.306V211.172ZM499.312 215.172V227.306H601.861V215.172H499.312Z" fill="black"/>
<path fill-rule="evenodd" clip-rule="evenodd" d="M491.312 191.038C491.312 188.829 493.103 187.038 495.312 187.038H605.861C608.071 187.038 609.861 188.829 609.861 191.038V211.172C609.861 213.381 608.071 215.172 605.861 215.172H495.312C493.103 215.172 491.312 213.381 491.312 211.172V191.038ZM499.312 195.038V207.172H601.861V195.038H499.312Z" fill="black"/>
<path fill-rule="evenodd" clip-rule="evenodd" d="M491.312 170.938C491.312 168.729 493.103 166.938 495.312 166.938H605.861C608.071 166.938 609.861 168.729 609.861 170.938V191.072C609.861 193.281 608.071 195.072 605.861 195.072H495.312C493.103 195.072 491.312 193.281 491.312 191.072V170.938ZM499.312 174.938V187.072H601.861V174.938H499.312Z" fill="black"/>
<path fill-rule="evenodd" clip-rule="evenodd" d="M491.312 58.4683C491.312 56.2591 493.103 54.4683 495.312 54.4683H605.861C608.071 54.4683 609.861 56.2591 609.861 58.4683V78.6024C609.861 80.8116 608.071 82.6024 605.861 82.6024H495.312C493.103 82.6024 491.312 80.8116 491.312 78.6024V58.4683ZM499.312 62.4683V74.6024H601.861V62.4683H499.312Z" fill="black"/>
<path fill-rule="evenodd" clip-rule="evenodd" d="M491.312 38.3685C491.312 36.1594 493.103 34.3685 495.312 34.3685H605.861C608.071 34.3685 609.861 36.1594 609.861 38.3685V58.5027C609.861 60.7118 608.071 62.5027 605.861 62.5027H495.312C493.103 62.5027 491.312 60.7118 491.312 58.5027V38.3685ZM499.312 42.3685V54.5027H601.861V42.3685H499.312Z" fill="black"/>
<path fill-rule="evenodd" clip-rule="evenodd" d="M491.312 18.2344C491.312 16.0252 493.103 14.2344 495.312 14.2344H605.861C608.071 14.2344 609.861 16.0252 609.861 18.2344V38.3685C609.861 40.5777 608.071 42.3685 605.861 42.3685H495.312C493.103 42.3685 491.312 40.5777 491.312 38.3685V18.2344ZM499.312 22.2344V34.3685H601.861V22.2344H499.312Z" fill="black"/>
<path fill-rule="evenodd" clip-rule="evenodd" d="M491.312 288.621C491.312 286.412 493.103 284.621 495.312 284.621H605.861C608.071 284.621 609.861 286.412 609.861 288.621V308.755C609.861 310.965 608.071 312.755 605.861 312.755H495.312C493.103 312.755 491.312 310.965 491.312 308.755V288.621ZM499.312 292.621V304.755H601.861V292.621H499.312Z" fill="black"/>
<path fill-rule="evenodd" clip-rule="evenodd" d="M491.312 268.487C491.312 266.278 493.103 264.487 495.312 264.487H605.861C608.071 264.487 609.861 266.278 609.861 268.487V288.621C609.861 290.83 608.071 292.621 605.861 292.621H495.312C493.103 292.621 491.312 290.83 491.312 288.621V268.487ZM499.312 272.487V284.621H601.861V272.487H499.312Z" fill="black"/>
<path fill-rule="evenodd" clip-rule="evenodd" d="M491.312 133.517C491.312 131.308 493.103 129.517 495.312 129.517H605.861C608.071 129.517 609.861 131.308 609.861 133.517V153.651C609.861 155.86 608.071 157.651 605.861 157.651H495.312C493.103 157.651 491.312 155.86 491.312 153.651V133.517ZM499.312 137.517V149.651H601.861V137.517H499.312Z" fill="black"/>
<path fill-rule="evenodd" clip-rule="evenodd" d="M491.312 113.383C491.312 111.174 493.103 109.383 495.312 109.383H605.861C608.071 109.383 609.861 111.174 609.861 113.383V133.517C609.861 135.726 608.071 137.517 605.861 137.517H495.312C493.103 137.517 491.312 135.726 491.312 133.517V113.383ZM499.312 117.383V129.517H601.861V117.383H499.312Z" fill="black"/>
<path fill-rule="evenodd" clip-rule="evenodd" d="M550.57 346.095C549.281 346.095 548.225 347.151 548.225 348.441C548.225 349.73 549.281 350.786 550.57 350.786C551.86 350.786 552.916 349.73 552.916 348.441C552.916 347.151 551.86 346.095 550.57 346.095ZM540.225 348.441C540.225 342.733 544.862 338.095 550.57 338.095C556.278 338.095 560.916 342.733 560.916 348.441C560.916 354.148 556.278 358.786 550.57 358.786C544.862 358.786 540.225 354.148 540.225 348.441Z" fill="black"/>
<path fill-rule="evenodd" clip-rule="evenodd" d="M331.68 474.596C331.68 472.387 333.471 470.596 335.68 470.596H435.904C438.113 470.596 439.904 472.387 439.904 474.596V544.603C439.904 546.812 438.113 548.603 435.904 548.603H335.68C333.471 548.603 331.68 546.812 331.68 544.603V474.596ZM339.68 478.596V540.603H431.904V478.596H339.68Z" fill="black"/>
<path fill-rule="evenodd" clip-rule="evenodd" d="M331.68 451.375C331.68 449.166 333.471 447.375 335.68 447.375H446.229C448.438 447.375 450.229 449.166 450.229 451.375V474.562C450.229 476.771 448.438 478.562 446.229 478.562H335.68C333.471 478.562 331.68 476.771 331.68 474.562V451.375ZM339.68 455.375V470.562H442.229V455.375H339.68Z" fill="black"/>
<path fill-rule="evenodd" clip-rule="evenodd" d="M334.18 381.369C334.18 380.54 334.851 379.869 335.68 379.869H412.889C413.717 379.869 414.389 380.54 414.389 381.369V451.375C414.389 452.203 413.717 452.875 412.889 452.875H335.68C334.851 452.875 334.18 452.203 334.18 451.375V381.369ZM337.18 382.869V449.875H411.389V382.869H337.18Z" fill="black"/>
<path fill-rule="evenodd" clip-rule="evenodd" d="M331.68 381.369C331.68 379.16 333.471 377.369 335.68 377.369H412.889C415.098 377.369 416.889 379.16 416.889 381.369V451.375C416.889 453.584 415.098 455.375 412.889 455.375H335.68C333.471 455.375 331.68 453.584 331.68 451.375V381.369ZM339.68 385.369V447.375H408.889V385.369H339.68Z" fill="black"/>
<path fill-rule="evenodd" clip-rule="evenodd" d="M331.68 358.182C331.68 355.973 333.471 354.182 335.68 354.182H420.847C423.056 354.182 424.847 355.973 424.847 358.182V381.369C424.847 383.578 423.056 385.369 420.847 385.369H335.68C333.471 385.369 331.68 383.578 331.68 381.369V358.182ZM339.68 362.182V377.369H416.847V362.182H339.68Z" fill="black"/>
<path fill-rule="evenodd" clip-rule="evenodd" d="M0 544.603C0 542.393 1.79086 540.603 4 540.603H662.629C664.838 540.603 666.629 542.393 666.629 544.603C666.629 546.812 664.838 548.603 662.629 548.603H4C1.79086 548.603 0 546.812 0 544.603Z" fill="black"/>
<path fill-rule="evenodd" clip-rule="evenodd" d="M474.986 232.781C474.986 230.572 476.777 228.781 478.986 228.781H622.154C624.364 228.781 626.154 230.572 626.154 232.781V310.333H618.154V236.781H482.986V310.333H474.986V232.781Z" fill="black"/>
<path fill-rule="evenodd" clip-rule="evenodd" d="M474.986 155.846C474.986 153.637 476.777 151.846 478.986 151.846H622.154C624.364 151.846 626.154 153.637 626.154 155.846V233.398H618.154V159.846H482.986V233.398H474.986V155.846Z" fill="black"/>
<path fill-rule="evenodd" clip-rule="evenodd" d="M474.986 79.0142C474.986 76.805 476.777 75.0142 478.986 75.0142H622.154C624.364 75.0142 626.154 76.805 626.154 79.0142V156.567H618.154V83.0142H482.986V156.567H474.986V79.0142Z" fill="black"/>
<path fill-rule="evenodd" clip-rule="evenodd" d="M157.32 207.168C158.149 207.168 158.82 207.84 158.82 208.668V348.407C158.82 349.235 158.149 349.907 157.32 349.907C156.492 349.907 155.82 349.235 155.82 348.407V208.668C155.82 207.84 156.492 207.168 157.32 207.168Z" fill="white"/>
</svg>
