<svg width="15" height="14" viewBox="0 0 15 14" fill="none" xmlns="http://www.w3.org/2000/svg">
<path fill-rule="evenodd" clip-rule="evenodd" d="M5.38782 4.54159C4.39686 4.54159 3.40591 4.54159 2.41495 4.54159C1.82622 4.54159 1.56151 4.56133 1.2289 4.84108C0.602353 5.36797 0.554223 6.39772 1.27015 6.95206C1.9242 7.45922 2.81116 8.06248 3.51334 8.58593L3.97487 8.92146L3.69812 9.76757C3.55201 10.2061 2.88679 12.1205 2.88679 12.4329C2.88679 13.4729 3.86228 14.0058 4.62462 13.7699C4.89363 13.6866 5.07927 13.5433 5.2907 13.3846L7.70921 11.6366L10.1277 13.3846C10.5437 13.6978 10.9906 13.9767 11.6301 13.7415C12.1543 13.5493 12.5308 13.1005 12.5308 12.4329C12.5308 12.0897 12.1397 11.1157 12.016 10.6669L11.5837 9.36082C11.5398 9.21837 11.5063 9.05361 11.4436 8.92146C11.5115 8.87598 11.5751 8.82277 11.6507 8.76614L13.2252 7.62312C13.3756 7.50984 13.5106 7.41717 13.6653 7.30218C14.1526 6.93919 14.6708 6.72037 14.6708 5.84423C14.6708 5.43233 14.4216 5.03587 14.1895 4.84022C13.8569 4.56047 13.5913 4.54074 13.0035 4.54074C12.0125 4.54074 11.0216 4.54074 10.0306 4.54074C9.95584 4.38541 9.88966 4.1357 9.82692 3.94777L9.23733 2.14743C9.10841 1.74239 9.02332 1.30475 8.79385 0.997541C8.41139 0.485241 7.6946 0.317906 7.08095 0.617392C6.52488 0.888559 6.35557 1.50469 6.18797 2.11482C6.07796 2.51728 5.91724 2.92403 5.79348 3.31362C5.72472 3.52901 5.67316 3.71093 5.60354 3.92031C5.54596 4.09365 5.46689 4.38198 5.39039 4.54074L5.38782 4.54159Z" fill="black"/>
</svg>
