<svg width="271" height="200" viewBox="0 0 271 200" fill="none" xmlns="http://www.w3.org/2000/svg">
<path fill-rule="evenodd" clip-rule="evenodd" d="M140.875 19.2816C140.876 19.2813 140.876 19.2808 140.876 19.2805C141.292 18.5697 141.053 17.6563 140.343 17.2396C139.631 16.8227 138.717 17.0612 138.3 17.7722L139.588 18.5272C138.3 17.7722 138.3 17.7725 138.3 17.7728L138.299 17.7748L138.296 17.7785L138.29 17.7895C138.285 17.7983 138.278 17.8102 138.27 17.8251C138.253 17.8549 138.229 17.8965 138.2 17.9491C138.142 18.0543 138.062 18.2039 137.966 18.3909C137.776 18.7638 137.523 19.2908 137.27 19.9148C136.777 21.1314 136.227 22.8493 136.227 24.5552C136.227 26.1632 136.458 27.386 136.845 28.4107C137.222 29.4091 137.725 30.1519 138.136 30.7598L138.153 30.7849C138.576 31.4098 138.899 31.8933 139.143 32.5326C139.381 33.1576 139.567 34.0011 139.567 35.2931C139.567 36.7943 139.148 38.1936 138.705 39.244C138.486 39.7634 138.268 40.182 138.108 40.4661C138.028 40.6078 137.963 40.7149 137.92 40.7832C137.899 40.8173 137.883 40.8416 137.874 40.8556L137.866 40.868L137.866 40.867L137.867 40.8664C137.867 40.8661 137.867 40.8658 139.101 41.7051L137.867 40.8658C137.866 40.8669 137.866 40.8679 137.865 40.869C137.404 41.5503 137.581 42.4765 138.262 42.9393C138.944 43.4028 139.872 43.226 140.335 42.5444L139.115 41.7146C140.335 42.5443 140.336 42.544 140.336 42.5436L140.337 42.5428L140.338 42.5411L140.341 42.5367L140.349 42.5247C140.355 42.5154 140.363 42.5032 140.373 42.4882C140.392 42.4582 140.419 42.4172 140.451 42.3657C140.515 42.2627 140.603 42.1172 140.707 41.9337C140.914 41.5675 141.185 41.0455 141.456 40.4034C141.992 39.1309 142.552 37.3242 142.552 35.2931C142.552 33.699 142.32 32.4867 141.932 31.4691C141.559 30.4894 141.061 29.7551 140.654 29.1544C140.645 29.14 140.635 29.1256 140.625 29.1114C140.205 28.4904 139.881 28.0025 139.637 27.3561C139.398 26.7222 139.212 25.8652 139.212 24.5552C139.212 23.4199 139.596 22.1237 140.036 21.0366C140.251 20.5088 140.465 20.0615 140.625 19.7481C140.705 19.5919 140.77 19.4703 140.814 19.3902C140.837 19.3501 140.853 19.3205 140.864 19.3022L140.874 19.2833L140.875 19.2816Z" fill="black"/>
<path fill-rule="evenodd" clip-rule="evenodd" d="M148.226 17.2396C148.937 17.6563 149.175 18.5697 148.76 19.2805C148.759 19.2811 148.759 19.2816 148.759 19.2821L147.503 18.5457C148.759 19.2821 148.759 19.2819 148.759 19.2816L148.759 19.2813L148.758 19.2833L148.747 19.3022C148.737 19.3205 148.72 19.3501 148.698 19.3902C148.654 19.4703 148.588 19.5919 148.509 19.7481C148.349 20.0615 148.134 20.5088 147.92 21.0366C147.479 22.1237 147.095 23.4199 147.095 24.5552C147.095 25.8652 147.281 26.7222 147.521 27.3561C147.765 28.0025 148.088 28.4904 148.509 29.1114C148.518 29.1256 148.528 29.14 148.538 29.1544C148.945 29.7551 149.442 30.4894 149.816 31.4691C150.204 32.4867 150.436 33.699 150.436 35.293C150.436 37.3242 149.876 39.1308 149.339 40.4034C149.069 41.0455 148.797 41.5675 148.591 41.9337C148.487 42.1172 148.399 42.2626 148.335 42.3657C148.302 42.4172 148.276 42.4582 148.256 42.4881C148.247 42.5031 148.239 42.5153 148.232 42.5247L148.224 42.5367L148.221 42.541L148.22 42.5428L148.22 42.5436C148.219 42.544 148.219 42.5443 146.985 41.7051L148.219 42.5443C147.756 43.226 146.827 43.4028 146.146 42.9393C145.465 42.4765 145.288 41.5504 145.748 40.869C145.748 40.8696 145.748 40.8697 145.748 40.8693L145.749 40.8687C145.749 40.8688 145.749 40.8689 145.748 40.869" fill="black"/>
<path fill-rule="evenodd" clip-rule="evenodd" d="M69.4043 73.2659C69.4043 72.9568 69.6549 72.7062 69.964 72.7062H124.997C125.306 72.7062 125.557 72.9568 125.557 73.2659C125.557 73.575 125.306 73.8256 124.997 73.8256H69.964C69.6549 73.8256 69.4043 73.575 69.4043 73.2659Z" fill="black"/>
<path fill-rule="evenodd" clip-rule="evenodd" d="M0 73.2659C0 72.4416 0.668226 71.7733 1.49252 71.7733H163.264C164.088 71.7733 164.757 72.4416 164.757 73.2659V82.1608C164.757 82.9851 164.088 83.6533 163.264 83.6533H1.49252C0.668226 83.6533 0 82.9851 0 82.1608V73.2659ZM2.98505 74.7584V80.6683H161.772V74.7584H2.98505Z" fill="black"/>
<path fill-rule="evenodd" clip-rule="evenodd" d="M7.93555 82.1608C7.93555 81.3365 8.60377 80.6683 9.42807 80.6683H17.3759C18.2002 80.6683 18.8684 81.3365 18.8684 82.1608V197.909C18.8684 198.734 18.2002 199.402 17.3759 199.402H9.42807C8.60377 199.402 7.93555 198.734 7.93555 197.909V82.1608ZM10.9206 83.6533V196.417H15.8833V83.6533H10.9206Z" fill="black"/>
<path fill-rule="evenodd" clip-rule="evenodd" d="M146.477 82.1608C146.477 81.3365 147.145 80.6683 147.969 80.6683H155.917C156.741 80.6683 157.409 81.3365 157.409 82.1608V197.909C157.409 198.734 156.741 199.402 155.917 199.402H147.969C147.145 199.402 146.477 198.734 146.477 197.909V82.1608ZM149.462 83.6533V196.417H154.424V83.6533H149.462Z" fill="black"/>
<path fill-rule="evenodd" clip-rule="evenodd" d="M8.88086 82.1608C8.88086 81.8517 9.13144 81.6011 9.44056 81.6011H155.931C156.24 81.6011 156.491 81.8517 156.491 82.1608V108.206C156.491 108.515 156.24 108.765 155.931 108.765C155.622 108.765 155.371 108.515 155.371 108.206V82.7205H10.0003V108.206C10.0003 108.515 9.74967 108.765 9.44056 108.765C9.13144 108.765 8.88086 108.515 8.88086 108.206V82.1608Z" fill="black"/>
<path fill-rule="evenodd" clip-rule="evenodd" d="M15.8965 108.206C15.8965 107.381 16.5647 106.713 17.389 106.713H147.984C148.808 106.713 149.476 107.381 149.476 108.206C149.476 109.03 148.808 109.698 147.984 109.698H17.389C16.5647 109.698 15.8965 109.03 15.8965 108.206Z" fill="black"/>
<path fill-rule="evenodd" clip-rule="evenodd" d="M61.9316 95.1896C61.9316 94.3653 62.5999 93.6971 63.4242 93.6971H97.8135C98.6378 93.6971 99.3061 94.3653 99.3061 95.1896C99.3061 96.0139 98.6378 96.6821 97.8135 96.6821H63.4242C62.5999 96.6821 61.9316 96.0139 61.9316 95.1896Z" fill="black"/>
<path fill-rule="evenodd" clip-rule="evenodd" d="M37.9219 3.82183C37.9219 1.72842 39.6161 0 41.7309 0H123.026C125.141 0 126.835 1.72842 126.835 3.82183V59.4309C126.835 61.535 125.13 63.2399 123.026 63.2399H41.7309C39.6268 63.2399 37.9219 61.535 37.9219 59.4309V33.3093C37.9219 32.485 38.5901 31.8168 39.4144 31.8168C40.2387 31.8168 40.9069 32.485 40.9069 33.3093V59.4309C40.9069 59.8864 41.2754 60.2548 41.7309 60.2548H123.026C123.482 60.2548 123.85 59.8864 123.85 59.4309V3.82183C123.85 3.35557 123.471 2.98505 123.026 2.98505H41.7309C41.286 2.98505 40.9069 3.35557 40.9069 3.82183V16.9018C40.9069 17.7261 40.2387 18.3943 39.4144 18.3943C38.5901 18.3943 37.9219 17.7261 37.9219 16.9018V3.82183Z" fill="black"/>
<path fill-rule="evenodd" clip-rule="evenodd" d="M71.8868 61.5657C71.9786 60.8172 72.6142 60.2548 73.3682 60.2548H91.3756C92.1296 60.2548 92.7652 60.8172 92.857 61.5657L94.2776 73.1482C94.3297 73.5725 94.1973 73.9988 93.914 74.319C93.6307 74.6391 93.2237 74.8224 92.7962 74.8224H71.9476C71.5201 74.8224 71.1131 74.6391 70.8298 74.319C70.5466 73.9988 70.4141 73.5725 70.4662 73.1482L71.8868 61.5657ZM74.6889 63.2399L73.6344 71.8374H91.1095L90.055 63.2399H74.6889Z" fill="black"/>
<path fill-rule="evenodd" clip-rule="evenodd" d="M44.0781 7.48221C44.0781 6.65791 44.7464 5.98969 45.5706 5.98969H118.803C119.627 5.98969 120.296 6.65791 120.296 7.48221V53.4924C120.296 54.3167 119.627 54.985 118.803 54.985H45.5706C44.7464 54.985 44.0781 54.3167 44.0781 53.4924V38.224C44.0781 37.3997 44.7464 36.7314 45.5706 36.7314C46.3949 36.7314 47.0632 37.3997 47.0632 38.224V51.9999H117.31V8.97473H47.0632V20.9461C47.0632 21.7704 46.3949 22.4386 45.5706 22.4386C44.7464 22.4386 44.0781 21.7704 44.0781 20.9461V7.48221Z" fill="black"/>
<path d="M259.714 124.165C259.714 128.325 256.348 131.703 252.176 131.703H183.935C179.762 131.703 176.396 128.337 176.396 124.165C176.396 119.993 179.775 116.627 183.935 116.627H252.176C256.348 116.627 259.714 119.993 259.714 124.165Z" fill="#57A695"/>
<path fill-rule="evenodd" clip-rule="evenodd" d="M183.933 118.119C180.596 118.119 177.887 120.819 177.887 124.165C177.887 127.513 180.585 130.211 183.933 130.211H252.174C255.521 130.211 258.22 127.502 258.22 124.165C258.22 120.817 255.522 118.119 252.174 118.119H183.933ZM174.902 124.165C174.902 119.167 178.951 115.134 183.933 115.134H252.174C257.171 115.134 261.205 119.169 261.205 124.165C261.205 129.147 257.172 133.196 252.174 133.196H183.933C178.937 133.196 174.902 129.162 174.902 124.165Z" fill="#1D1D1B"/>
<path d="M187.709 116.435V63.2703C187.709 46.5045 201.301 32.9254 218.054 32.9254C234.82 32.9254 248.412 46.5045 248.412 63.2703V116.435H187.709Z" fill="#57A695"/>
<path fill-rule="evenodd" clip-rule="evenodd" d="M218.054 34.4179C202.125 34.4179 189.202 47.3292 189.202 63.2704V114.942H246.92V63.2704C246.92 47.3296 233.997 34.4179 218.054 34.4179ZM186.217 63.2704C186.217 45.6797 200.477 31.4328 218.054 31.4328C235.644 31.4328 249.905 45.6793 249.905 63.2704V117.927H186.217V63.2704Z" fill="#1D1D1B"/>
<path fill-rule="evenodd" clip-rule="evenodd" d="M208.242 143.35C208.242 142.526 208.91 141.857 209.735 141.857H226.398C227.223 141.857 227.891 142.526 227.891 143.35V146.396C227.891 151.815 223.485 156.22 218.066 156.22C215.351 156.22 212.89 155.117 211.111 153.339L211.107 153.334C209.347 151.559 208.242 149.113 208.242 146.396V143.35ZM211.227 144.843V146.396C211.227 148.285 211.991 149.985 213.224 151.23C214.466 152.471 216.176 153.235 218.066 153.235C221.837 153.235 224.906 150.166 224.906 146.396V144.843H211.227Z" fill="black"/>
<path fill-rule="evenodd" clip-rule="evenodd" d="M218.055 154.374C218.879 154.374 219.548 155.043 219.548 155.867V188.964C219.548 189.788 218.879 190.456 218.055 190.456C217.231 190.456 216.562 189.788 216.562 188.964V155.867C216.562 155.043 217.231 154.374 218.055 154.374Z" fill="black"/>
<path fill-rule="evenodd" clip-rule="evenodd" d="M258.847 100.77C258.847 99.9454 259.515 99.2772 260.339 99.2772H268.62C269.444 99.2772 270.112 99.9454 270.112 100.77V119.236C270.113 119.256 270.114 119.279 270.115 119.305C270.117 119.377 270.117 119.47 270.113 119.583C270.104 119.808 270.078 120.114 270.01 120.473C269.874 121.192 269.566 122.145 268.88 123.103C267.461 125.084 264.699 126.731 259.644 126.848C258.82 126.866 258.137 126.214 258.118 125.39C258.099 124.566 258.751 123.882 259.575 123.863C263.991 123.762 265.734 122.369 266.453 121.365C266.836 120.831 267.004 120.305 267.077 119.918C267.114 119.724 267.126 119.57 267.13 119.474C267.131 119.426 267.131 119.393 267.131 119.379C267.131 119.376 267.13 119.374 267.13 119.373C267.128 119.341 267.127 119.308 267.127 119.276V102.262H260.339C259.515 102.262 258.847 101.594 258.847 100.77Z" fill="black"/>
<path fill-rule="evenodd" clip-rule="evenodd" d="M166.033 100.77C166.033 99.9454 166.701 99.2772 167.525 99.2772H175.818C176.643 99.2772 177.311 99.9454 177.311 100.77C177.311 101.594 176.643 102.262 175.818 102.262H169.018V119.276C169.018 119.307 169.017 119.339 169.015 119.37C169.015 119.371 169.015 119.373 169.015 119.376C169.014 119.39 169.014 119.423 169.016 119.471C169.019 119.567 169.032 119.721 169.069 119.914C169.142 120.3 169.311 120.826 169.694 121.361C170.413 122.365 172.151 123.756 176.546 123.863C177.37 123.883 178.022 124.568 178.002 125.392C177.982 126.216 177.297 126.868 176.473 126.847C171.436 126.724 168.682 125.076 167.267 123.098C166.582 122.142 166.273 121.191 166.137 120.474C166.068 120.115 166.042 119.81 166.033 119.585C166.029 119.473 166.029 119.379 166.03 119.308C166.031 119.281 166.032 119.257 166.033 119.237V100.77Z" fill="black"/>
<path fill-rule="evenodd" clip-rule="evenodd" d="M198.031 180.429C200.27 178.633 203.269 177.757 206.446 177.757H229.662C232.845 177.757 235.845 178.633 238.082 180.429C240.355 182.254 241.739 184.953 241.739 188.324C241.739 189.148 241.071 189.816 240.246 189.816C239.422 189.816 238.754 189.148 238.754 188.324C238.754 185.845 237.77 184.007 236.213 182.757C234.621 181.478 232.329 180.742 229.662 180.742H206.446C203.787 180.742 201.494 181.478 199.899 182.757C198.34 184.008 197.354 185.846 197.354 188.324C197.354 189.148 196.686 189.816 195.862 189.816C195.037 189.816 194.369 189.148 194.369 188.324C194.369 184.952 195.757 182.253 198.031 180.429Z" fill="black"/>
<path fill-rule="evenodd" clip-rule="evenodd" d="M196.213 131.703C196.213 130.879 196.881 130.211 197.705 130.211H238.43C239.254 130.211 239.923 130.879 239.923 131.703V143.35C239.923 144.174 239.254 144.842 238.43 144.842H226.399C225.575 144.842 224.907 144.174 224.907 143.35C224.907 142.526 225.575 141.857 226.399 141.857H236.937V133.196H199.198V141.857H209.736C210.56 141.857 211.228 142.526 211.228 143.35C211.228 144.174 210.56 144.842 209.736 144.842H197.705C196.881 144.842 196.213 144.174 196.213 143.35V131.703Z" fill="black"/>
<path fill-rule="evenodd" clip-rule="evenodd" d="M7.49035 66.9575C8.58032 66.1769 10.0046 65.7326 11.7963 65.7326H28.8054C30.552 65.7326 31.9473 66.1825 33.021 66.9607C34.0847 67.7316 34.7226 68.7445 35.1014 69.6941C35.8359 71.5351 35.6732 73.3941 35.6732 73.2787C35.6732 73.6746 35.516 74.0542 35.2361 74.3341C34.9562 74.614 34.5765 74.7713 34.1807 74.7713H6.42096C5.67047 74.7713 5.03669 74.214 4.9407 73.4696L6.42096 73.2787C4.9407 73.4696 4.9406 73.4689 4.9405 73.4681L4.94029 73.4665L4.93982 73.4627L4.93869 73.4535C4.93785 73.4466 4.93686 73.4382 4.93575 73.4283C4.93354 73.4086 4.93082 73.383 4.92787 73.352C4.92198 73.29 4.9151 73.2058 4.90928 73.1026C4.89768 72.8967 4.89013 72.6115 4.90387 72.2724C4.93096 71.6039 5.04267 70.6764 5.4047 69.7224C5.7705 68.7585 6.40612 67.7339 7.49035 66.9575ZM7.94219 71.7862H32.6064C32.5507 71.4747 32.4637 71.138 32.3289 70.8002C32.1046 70.2379 31.7689 69.7398 31.2693 69.3777C30.7796 69.0228 30.0215 68.7176 28.8054 68.7176H11.7963C10.51 68.7176 9.72335 69.0299 9.22832 69.3844C8.72755 69.743 8.40408 70.232 8.19555 70.7815C8.06807 71.1174 7.98906 71.4628 7.94219 71.7862Z" fill="black"/>
<path fill-rule="evenodd" clip-rule="evenodd" d="M22.9219 63.6159C22.9219 62.7916 23.5901 62.1234 24.4144 62.1234H27.0636C27.8879 62.1234 28.5561 62.7916 28.5561 63.6159V67.2251C28.5561 68.0494 27.8879 68.7176 27.0636 68.7176H24.4144C23.5901 68.7176 22.9219 68.0494 22.9219 67.2251V63.6159Z" fill="black"/>
<path fill-rule="evenodd" clip-rule="evenodd" d="M41.0851 18.7132C41.4887 18.3096 42.0871 18.1716 42.6268 18.3575L58.8935 23.9632C59.38 24.1309 59.7459 24.5373 59.8615 25.0387C59.9772 25.5402 59.8265 26.0658 59.4626 26.4297L43.2982 42.5941C42.9343 42.9579 42.4087 43.1087 41.9073 42.993C41.4058 42.8773 40.9994 42.5115 40.8317 42.025L35.226 25.7582C35.04 25.2186 35.1781 24.6201 35.5817 24.2165L41.0851 18.7132ZM42.5362 21.4836L38.3521 25.6676L42.8759 38.7948L55.6634 26.0074L42.5362 21.4836Z" fill="black"/>
<path fill-rule="evenodd" clip-rule="evenodd" d="M37.6797 17.3045C36.7268 16.3515 35.1761 16.3515 34.2232 17.3045C33.2702 18.2574 33.2702 19.8081 34.2232 20.761L36.6361 23.174L40.0927 19.7175L37.6797 17.3045ZM32.1124 15.1937C34.2311 13.075 37.6718 13.075 39.7904 15.1937C39.7904 15.1937 39.7904 15.1937 39.7904 15.1937L43.2588 18.6621C43.5387 18.942 43.696 19.3216 43.696 19.7175C43.696 20.1133 43.5387 20.4929 43.2588 20.7728L37.6915 26.3401C37.4116 26.62 37.032 26.7773 36.6361 26.7773C36.2403 26.7773 35.8606 26.62 35.5807 26.3401L32.1124 22.8718C32.1124 22.8718 32.1124 22.8718 32.1124 22.8718C29.9938 20.7531 29.9938 17.3124 32.1124 15.1937Z" fill="black"/>
<path fill-rule="evenodd" clip-rule="evenodd" d="M33.1992 18.8587C33.7017 19.5121 33.5794 20.4492 32.926 20.9517L12.4934 36.6673L20.9618 66.8216C21.1847 67.6152 20.722 68.4392 19.9284 68.662C19.1348 68.8849 18.3108 68.4222 18.0879 67.6286L9.34668 36.5029C9.18187 35.9161 9.3905 35.288 9.87367 34.9163L31.1062 18.5856C31.7596 18.083 32.6966 18.2053 33.1992 18.8587Z" fill="black"/>
<path fill-rule="evenodd" clip-rule="evenodd" d="M133.027 50.1777C133.027 49.3534 133.696 48.6851 134.52 48.6851H150.377C151.201 48.6851 151.869 49.3534 151.869 50.1777V73.266C151.869 74.0903 151.201 74.7585 150.377 74.7585H134.52C133.696 74.7585 133.027 74.0903 133.027 73.266V50.1777ZM136.012 51.6702V71.7734H148.884V51.6702H136.012Z" fill="black"/>
<path fill-rule="evenodd" clip-rule="evenodd" d="M148.883 53.198C148.883 52.3738 149.551 51.7055 150.375 51.7055C155.372 51.7055 159.419 55.7525 159.419 60.7491C159.419 65.7457 155.372 69.7927 150.375 69.7927C149.551 69.7927 148.883 69.1245 148.883 68.3002V53.198ZM151.868 54.8755V66.6227C154.493 65.9585 156.434 63.5819 156.434 60.7491C156.434 57.9162 154.493 55.5397 151.868 54.8755Z" fill="black"/>
<path fill-rule="evenodd" clip-rule="evenodd" d="M15.8965 169.151C15.8965 168.327 16.5647 167.659 17.389 167.659H93.3092C94.0841 167.659 94.7302 168.252 94.7963 169.024L95.4362 176.498C95.4718 176.915 95.3312 177.327 95.0486 177.635C94.7659 177.943 94.3671 178.118 93.9491 178.118H17.389C16.5647 178.118 15.8965 177.45 15.8965 176.626V169.151ZM18.8815 170.644V175.133H92.3233L91.939 170.644H18.8815Z" fill="black"/>
<path fill-rule="evenodd" clip-rule="evenodd" d="M128.528 169.024C128.594 168.252 129.24 167.659 130.015 167.659H147.984C148.809 167.659 149.477 168.327 149.477 169.151V176.626C149.477 177.45 148.809 178.118 147.984 178.118H129.375C128.957 178.118 128.559 177.943 128.276 177.635C127.993 177.327 127.853 176.915 127.888 176.498L128.528 169.024ZM131.385 170.644L131.001 175.133H146.492V170.644H131.385Z" fill="black"/>
<path fill-rule="evenodd" clip-rule="evenodd" d="M93.8198 175.139C94.6411 175.068 95.3641 175.677 95.4347 176.498L97.1475 196.417H126.174L127.887 176.498C127.957 175.677 128.68 175.068 129.501 175.139C130.323 175.209 130.931 175.932 130.861 176.754L129.03 198.037C128.964 198.809 128.318 199.402 127.543 199.402H95.7778C95.0031 199.402 94.3572 198.809 94.2908 198.037L92.4607 176.754C92.39 175.932 92.9986 175.209 93.8198 175.139Z" fill="black"/>
<path fill-rule="evenodd" clip-rule="evenodd" d="M90.1486 144.261C90.4313 143.953 90.8303 143.777 91.2484 143.777H132.075C132.493 143.777 132.892 143.953 133.175 144.261C133.458 144.569 133.598 144.981 133.562 145.398L132.359 159.348L131.502 169.28C131.431 170.101 130.708 170.709 129.886 170.639C129.065 170.568 128.457 169.844 128.528 169.023L129.385 159.092L130.448 146.762H92.8752L93.9384 159.092L94.7959 169.023C94.8668 169.844 94.2585 170.568 93.4373 170.639C92.6161 170.709 91.8928 170.101 91.8219 169.28L89.7614 145.398C89.7255 144.981 89.8659 144.569 90.1486 144.261Z" fill="black"/>
<path fill-rule="evenodd" clip-rule="evenodd" d="M91.877 159.22C91.877 158.911 92.1275 158.66 92.4366 158.66H130.87C131.179 158.66 131.43 158.911 131.43 159.22C131.43 159.529 131.179 159.78 130.87 159.78H92.4366C92.1275 159.78 91.877 159.529 91.877 159.22Z" fill="black"/>
<path fill-rule="evenodd" clip-rule="evenodd" d="M36.6373 144.139C33.8909 144.139 31.6667 146.363 31.6667 149.109C31.6667 151.856 33.8909 154.08 36.6373 154.08C39.3838 154.08 41.608 151.856 41.608 149.109C41.608 146.363 39.3838 144.139 36.6373 144.139ZM28.6816 149.109C28.6816 144.714 32.2423 141.153 36.6373 141.153C41.0324 141.153 44.5931 144.714 44.5931 149.109C44.5931 153.504 41.0324 157.065 36.6373 157.065C32.2423 157.065 28.6816 153.504 28.6816 149.109Z" fill="black"/>
<path fill-rule="evenodd" clip-rule="evenodd" d="M51.9318 106.726C52.7561 106.726 53.4243 107.394 53.4243 108.218V140.829C53.4243 145.819 49.7879 149.964 45.0237 150.76C44.9423 150.774 44.86 150.781 44.7775 150.781H36.0746C35.2503 150.781 34.582 150.113 34.582 149.288C34.582 148.464 35.2503 147.796 36.0746 147.796H44.6476C47.9404 147.188 50.4393 144.295 50.4393 140.829V108.218C50.4393 107.394 51.1075 106.726 51.9318 106.726Z" fill="black"/>
</svg>
