<svg width="23" height="22" viewBox="0 0 23 22" fill="none" xmlns="http://www.w3.org/2000/svg">
<path fill-rule="evenodd" clip-rule="evenodd" d="M0.894531 7.59294H2.55909C2.55909 6.51758 2.72706 5.19836 3.07171 4.46312C3.70651 3.10943 4.67552 2.33433 6.16236 2.01301C6.852 1.86401 6.92249 1.93242 7.42779 1.90526C7.6163 1.89517 7.65529 1.86227 7.88401 1.86192C8.50158 1.86123 9.02499 1.82102 9.67476 1.82189C10.0271 1.82224 10.2365 1.77802 10.5475 1.77924L12.4216 1.77959C12.7511 1.77768 12.9395 1.82276 13.2949 1.82189C14.002 1.82032 16.0578 1.86418 16.7793 1.99926C19.6144 2.52997 20.4522 4.85423 20.4522 7.59329L22.1166 7.59294C22.1166 6.82201 22.0861 6.17154 21.9745 5.50088C21.8724 4.88748 21.7093 4.31342 21.4752 3.75311C21.0531 2.74268 20.2647 1.84242 19.4125 1.2802C18.7029 0.812147 17.8804 0.47342 16.9993 0.322856C16.3791 0.217026 15.0223 0.15976 14.3339 0.158716C14.1062 0.158368 14.0429 0.124078 13.8554 0.115723H9.18303C9.00479 0.122685 8.94979 0.153146 8.76058 0.158716C8.57103 0.16446 8.36669 0.157151 8.17574 0.156281L6.08334 0.311021C5.75366 0.364284 5.45061 0.44244 5.17524 0.526513C3.58919 1.01163 2.21253 2.18342 1.54831 3.7237C1.06372 4.84745 0.894531 6.00235 0.894531 7.59294Z" fill="#005454"/>
<path fill-rule="evenodd" clip-rule="evenodd" d="M11.4631 14.3052C11.2641 14.3052 10.8815 14.2479 10.6895 14.2049C9.57169 13.9558 8.75447 13.2303 8.25787 12.2253C7.83368 11.3668 7.82672 10.1994 8.24447 9.3388C9.40094 6.95622 12.2803 6.60566 13.9287 8.261C14.7776 9.11356 15.1812 10.2798 14.8999 11.5417C14.8491 11.7698 14.7727 12.0103 14.6818 12.1976C14.0658 13.4665 12.8589 14.3052 11.4631 14.3052ZM6.26172 10.5186C6.26172 11.4615 6.33361 12.1705 6.74683 12.9879C6.82394 13.1403 6.87338 13.2599 6.96041 13.3985C7.045 13.5332 7.12072 13.6395 7.21001 13.773C7.28991 13.8926 7.38234 14.0263 7.47825 14.1288C7.53273 14.1871 7.57085 14.215 7.6248 14.2737C7.7 14.3551 7.70609 14.3899 7.7738 14.4575C8.61052 15.2942 9.99275 15.9697 11.2135 15.9697C12.1969 15.9697 12.8131 15.9024 13.6831 15.4848C13.9776 15.3434 14.583 14.9784 14.8239 14.753C14.882 14.6985 14.91 14.6604 14.9685 14.6065C15.9464 13.7048 16.6646 12.4275 16.6646 11.0178C16.6646 9.61904 16.4534 8.86483 15.7163 7.76336C15.482 7.41332 15.5184 7.49808 15.3015 7.26275L14.9903 6.94978C14.7729 6.76006 14.8575 6.77868 14.493 6.53168C14.2275 6.35153 14.0009 6.21194 13.7104 6.0659C12.2643 5.33866 10.2035 5.4001 8.83298 6.26554C8.33794 6.57816 8.36561 6.5538 7.95778 6.92995C7.62794 7.23386 7.51271 7.35204 7.22411 7.73602C6.71185 8.41731 6.26172 9.56961 6.26172 10.5186Z" fill="#005454"/>
<path fill-rule="evenodd" clip-rule="evenodd" d="M2.64192 15.4263H0.977539C0.977539 16.487 1.46944 17.8532 2.03392 18.7001C3.08178 20.2724 4.66731 21.0461 6.523 21.2851C6.69984 21.3079 6.8572 21.287 7.03526 21.3138L8.05005 21.3808C8.99259 21.409 9.97222 21.4182 10.956 21.421H13.2507H13.461L16.5587 21.2731C17.7918 21.0945 18.7476 20.7825 19.7034 20.0483C21.0485 19.0146 21.757 17.5848 21.9989 15.8524C22.0393 15.5636 22.0656 15.1659 22.1049 14.8766C22.1472 14.5666 22.0257 14.0479 22.1578 13.8179C22.1503 13.811 22.1406 13.8005 22.135 13.7969C22.1298 13.7932 22.118 13.7817 22.111 13.7777C21.9528 13.6844 20.6443 13.7358 20.4518 13.7358C20.4518 15.8202 20.1765 17.6243 18.5204 18.8238C17.9182 19.2602 16.8653 19.6435 15.8329 19.6316L14.1697 19.7162C13.8784 19.7168 13.5861 19.7155 13.2945 19.7148C12.9391 19.714 12.7508 19.7591 12.4213 19.7571C11.8392 19.7538 11.2551 19.7545 10.6728 19.7566C10.3306 19.758 10.1649 19.7126 9.84133 19.7143C9.54977 19.7161 9.25822 19.7136 8.96666 19.7152L7.30384 19.6302C6.67338 19.6309 6.23318 19.5514 5.72945 19.4154C4.09674 18.9747 3.18204 17.7333 2.79144 16.1948C2.74619 16.0162 2.68926 15.5285 2.64192 15.4263Z" fill="#005454"/>
<path fill-rule="evenodd" clip-rule="evenodd" d="M0.97752 15.4261H2.64191L2.58273 14.4891C2.53747 14.1894 2.55784 12.9121 2.55871 12.5158C2.55975 12.0879 2.51537 11.9783 2.51693 11.5588C2.52198 10.1931 2.55871 8.95569 2.55871 7.59277H0.894143C0.866989 7.64395 0.856543 7.66083 0.852539 7.67754V11.5586V11.59C0.852713 12.2098 0.855498 12.8303 0.852539 13.4502V13.5673L0.944619 15.3361C0.963592 15.4308 0.944099 15.3755 0.97752 15.4261Z" fill="#005454"/>
<path fill-rule="evenodd" clip-rule="evenodd" d="M20.4522 13.7356C20.6447 13.7356 21.9531 13.6843 22.1113 13.7776C22.1183 13.7816 22.1301 13.7931 22.1353 13.7967C22.1409 13.8004 22.1507 13.8108 22.1581 13.8178V13.7689V13.72V13.6711V13.6221V13.5731V13.5241V13.4752V13.4263V13.3772V13.3283V13.2794V13.2305V13.1816V13.1325V13.0836V13.0347V12.9858V12.9367V12.8878V12.8389V12.7899V12.741V12.692V12.643V12.5941V12.545V12.4961V12.4472V12.3983V12.3494V12.3003V12.2514V12.2025V12.1536V12.1047V12.0556V12.0067V11.9578V11.9088V11.8598V11.8108V11.7619V11.713V11.6639V11.615V11.5661V11.5172V11.4683V11.4192V11.3703V11.3214V11.2725V11.2234V11.1745V11.1256V11.0767V11.0277V10.9786V10.9297V10.8808V10.8319V10.7828V10.7339V10.685V7.92367C22.148 7.79382 22.1345 7.6812 22.1165 7.59277L20.4522 7.59312C20.4522 8.11044 20.4527 8.62793 20.4522 9.14542C20.4515 9.6589 20.4938 10.0918 20.4938 10.6434C20.4938 11.6979 20.4522 12.6549 20.4522 13.7356Z" fill="#005454"/>
<path fill-rule="evenodd" clip-rule="evenodd" d="M15.999 5.02574V5.27552C15.999 5.81181 16.5863 6.39893 17.1226 6.39893H17.3722C17.9085 6.39893 18.4958 5.81181 18.4958 5.27552V5.02574C18.4958 4.48945 17.9085 3.90234 17.3722 3.90234H17.1226C16.5863 3.90234 15.999 4.48945 15.999 5.02574Z" fill="#005454"/>
</svg>
