<svg width="259" height="46" viewBox="0 0 259 46" fill="none" xmlns="http://www.w3.org/2000/svg">
<path d="M0 14.0028H6.25593L11.0679 30.5549H11.1644L16.1211 14.0028H22.2806L27.2855 30.5549H27.382L32.2905 14.0028H38.3063L30.3176 37.0981H24.4465L19.2009 20.9314H19.1049L13.9081 37.0981H8.037L0 14.0028Z" fill="black"/>
<path d="M40.6157 25.4543C40.6157 23.6259 40.9452 21.9662 41.603 20.4743C42.2603 18.9829 43.1506 17.708 44.2738 16.6491C45.397 15.5901 46.7286 14.7729 48.2684 14.1952C49.8083 13.6175 51.4446 13.3292 53.1769 13.3292C54.9092 13.3292 56.5455 13.6175 58.0854 14.1952C59.6253 14.7724 60.9568 15.5901 62.0801 16.6491C63.2028 17.708 64.093 18.9829 64.7508 20.4743C65.4087 21.9662 65.7376 23.6259 65.7376 25.4543C65.7376 27.2828 65.4087 28.9507 64.7508 30.4585C64.093 31.9658 63.2028 33.2571 62.0801 34.3319C60.9568 35.4062 59.6253 36.2486 58.0854 36.8581C56.5455 37.4676 54.9092 37.7723 53.1769 37.7723C51.4446 37.7723 49.8083 37.4676 48.2684 36.8581C46.7286 36.2486 45.397 35.4067 44.2738 34.3319C43.1506 33.2571 42.2603 31.9658 41.603 30.4585C40.9452 28.9512 40.6157 27.2828 40.6157 25.4543V25.4543ZM46.4868 25.4543C46.4868 26.3527 46.6233 27.251 46.8958 28.1488C47.1682 29.0471 47.5777 29.849 48.1226 30.5544C48.6686 31.2598 49.3577 31.8375 50.192 32.2864C51.0264 32.7353 52.0208 32.96 53.1758 32.96C54.3303 32.96 55.3253 32.7353 56.1591 32.2864C56.9934 31.837 57.683 31.2598 58.2285 30.5544C58.7745 29.849 59.1829 29.0471 59.4553 28.1488C59.7283 27.2504 59.8643 26.3521 59.8643 25.4543C59.8643 24.556 59.7283 23.6659 59.4553 22.784C59.1829 21.9015 58.7739 21.1079 58.2285 20.4019C57.683 19.696 56.9934 19.1265 56.1591 18.6935C55.3247 18.2605 54.3303 18.044 53.1758 18.044C52.0208 18.044 51.0258 18.2605 50.192 18.6935C49.3577 19.1265 48.6686 19.6954 48.1226 20.4019C47.5772 21.1073 47.1682 21.9015 46.8958 22.784C46.6233 23.6659 46.4868 24.556 46.4868 25.4543V25.4543Z" fill="black"/>
<path d="M69.9712 25.4543C69.9712 23.6259 70.3007 21.9662 70.9585 20.4743C71.6158 18.9829 72.506 17.708 73.6293 16.6491C74.7525 15.5901 76.084 14.7729 77.6239 14.1952C79.1638 13.6175 80.8001 13.3292 82.5324 13.3292C84.2647 13.3292 85.901 13.6175 87.4409 14.1952C88.9807 14.7724 90.3123 15.5901 91.4355 16.6491C92.5582 17.708 93.4485 18.9829 94.1063 20.4743C94.7641 21.9662 95.093 23.6259 95.093 25.4543C95.093 27.2828 94.7641 28.9507 94.1063 30.4585C93.4485 31.9658 92.5582 33.2571 91.4355 34.3319C90.3123 35.4062 88.9807 36.2486 87.4409 36.8581C85.901 37.4676 84.2647 37.7723 82.5324 37.7723C80.8001 37.7723 79.1638 37.4676 77.6239 36.8581C76.084 36.2486 74.7525 35.4067 73.6293 34.3319C72.506 33.2571 71.6158 31.9658 70.9585 30.4585C70.3007 28.9512 69.9712 27.2828 69.9712 25.4543V25.4543ZM75.8423 25.4543C75.8423 26.3527 75.9788 27.251 76.2512 28.1488C76.5237 29.0471 76.9332 29.849 77.4781 30.5544C78.0241 31.2598 78.7132 31.8375 79.5475 32.2864C80.3818 32.7353 81.3763 32.96 82.5313 32.96C83.6858 32.96 84.6807 32.7353 85.5145 32.2864C86.3489 31.837 87.0385 31.2598 87.5839 30.5544C88.1299 29.849 88.5383 29.0471 88.8108 28.1488C89.0838 27.2504 89.2197 26.3521 89.2197 25.4543C89.2197 24.556 89.0838 23.6659 88.8108 22.784C88.5383 21.9015 88.1294 21.1079 87.5839 20.4019C87.0385 19.696 86.3489 19.1265 85.5145 18.6935C84.6802 18.2605 83.6858 18.044 82.5313 18.044C81.3763 18.044 80.3813 18.2605 79.5475 18.6935C78.7132 19.1265 78.0241 19.6954 77.4781 20.4019C76.9326 21.1073 76.5237 21.9015 76.2512 22.784C75.9788 23.6659 75.8423 24.556 75.8423 25.4543Z" fill="black"/>
<path d="M124.159 37.0981H118.673V33.6336H118.576C117.774 34.9814 116.659 36.0074 115.232 36.7128C113.804 37.4188 112.272 37.7717 110.636 37.7717C108.871 37.7717 107.292 37.4429 105.896 36.7852C104.501 36.1274 103.313 35.2455 102.335 34.1389C101.357 33.0323 100.603 31.7333 100.074 30.2414C99.544 28.7494 99.2798 27.1539 99.2798 25.4537C99.2798 23.7535 99.5522 22.1656 100.098 20.6902C100.644 19.2147 101.413 17.9321 102.408 16.8408C103.403 15.7501 104.59 14.8923 105.969 14.2664C107.349 13.6416 108.857 13.3286 110.492 13.3286C111.552 13.3286 112.498 13.4486 113.332 13.6893C114.166 13.9299 114.895 14.227 115.521 14.5794C116.146 14.9324 116.684 15.3171 117.133 15.7342C117.582 16.1508 117.952 16.552 118.24 16.9373H118.384V0.72229H124.159V37.0976L124.159 37.0981ZM105.15 25.4543C105.15 26.3526 105.286 27.2509 105.559 28.1487C105.831 29.0471 106.241 29.8489 106.786 30.5543C107.331 31.2597 108.021 31.8374 108.855 32.2863C109.689 32.7352 110.667 32.96 111.791 32.96C112.85 32.96 113.796 32.7435 114.63 32.3105C115.464 31.8775 116.178 31.308 116.771 30.602C117.365 29.8966 117.814 29.1024 118.119 28.22C118.424 27.3381 118.576 26.448 118.576 25.5496C118.576 24.6513 118.424 23.753 118.119 22.8552C117.814 21.9568 117.365 21.155 116.771 20.4495C116.178 19.7441 115.464 19.1664 114.63 18.7175C113.795 18.2687 112.849 18.0439 111.791 18.0439C110.667 18.0439 109.689 18.2604 108.855 18.6934C108.021 19.1264 107.331 19.6954 106.786 20.4019C106.24 21.1073 105.831 21.9015 105.559 22.7839C105.286 23.6658 105.15 24.5559 105.15 25.4543V25.4543Z" fill="black"/>
<path d="M127.913 14.0028H134.169L138.981 30.5549H139.077L144.034 14.0028H150.194L155.199 30.5549H155.295L160.203 14.0028H166.219L158.23 37.0981H152.359L147.114 20.9314H147.018L141.821 37.0981H135.95L127.913 14.0028Z" fill="#57A695"/>
<path d="M168.528 25.4543C168.528 23.6259 168.857 21.9662 169.515 20.4743C170.172 18.9829 171.063 17.708 172.186 16.6491C173.309 15.5901 174.641 14.7729 176.181 14.1952C177.72 13.6175 179.357 13.3292 181.089 13.3292C182.821 13.3292 184.458 13.6175 185.998 14.1952C187.537 14.7724 188.869 15.5901 189.992 16.6491C191.115 17.708 192.005 18.9829 192.663 20.4743C193.321 21.9662 193.65 23.6259 193.65 25.4543C193.65 27.2828 193.321 28.9507 192.663 30.4585C192.005 31.9658 191.115 33.2571 189.992 34.3319C188.869 35.4062 187.537 36.2486 185.998 36.8581C184.458 37.4676 182.821 37.7723 181.089 37.7723C179.357 37.7723 177.72 37.4676 176.181 36.8581C174.641 36.2486 173.309 35.4067 172.186 34.3319C171.063 33.2571 170.172 31.9658 169.515 30.4585C168.857 28.9512 168.528 27.2828 168.528 25.4543V25.4543ZM174.399 25.4543C174.399 26.3527 174.535 27.251 174.808 28.1488C175.08 29.0471 175.49 29.849 176.035 30.5544C176.581 31.2598 177.27 31.8375 178.104 32.2864C178.938 32.7353 179.933 32.96 181.088 32.96C182.242 32.96 183.237 32.7353 184.071 32.2864C184.906 31.837 185.595 31.2598 186.141 30.5544C186.687 29.849 187.095 29.0471 187.367 28.1488C187.64 27.2504 187.776 26.3521 187.776 25.4543C187.776 24.556 187.64 23.6659 187.367 22.784C187.095 21.9015 186.686 21.1079 186.141 20.4019C185.595 19.696 184.906 19.1265 184.071 18.6935C183.237 18.2605 182.242 18.044 181.088 18.044C179.933 18.044 178.938 18.2605 178.104 18.6935C177.27 19.1265 176.581 19.6954 176.035 20.4019C175.489 21.1073 175.08 21.9015 174.808 22.784C174.535 23.6659 174.399 24.556 174.399 25.4543Z" fill="#57A695"/>
<path d="M199.231 14.0029H204.766V17.8522H204.862C205.504 16.505 206.402 15.4143 207.557 14.5806C208.712 13.7464 210.059 13.3298 211.599 13.3298C211.824 13.3298 212.065 13.3375 212.321 13.354C212.578 13.3698 212.802 13.4099 212.995 13.474V18.767C212.61 18.6705 212.281 18.6064 212.008 18.5746C211.736 18.5423 211.471 18.5264 211.214 18.5264C209.899 18.5264 208.84 18.7675 208.038 19.2482C207.236 19.7289 206.61 20.3072 206.161 20.9802C205.712 21.6538 205.407 22.3434 205.247 23.0493C205.086 23.7547 205.006 24.3165 205.006 24.7331V37.0988H199.231V14.0035V14.0029Z" fill="#57A695"/>
<path d="M216.845 0.7229H222.62V23.7223H222.764L231.523 14.0028H238.934L228.924 24.4442L239.559 37.0982H231.907L222.764 25.2619H222.62V37.0982H216.845V0.7229Z" fill="#57A695"/>
<path d="M255.247 20.1612C254.734 19.4876 254.028 18.9023 253.13 18.4051C252.231 17.908 251.253 17.6592 250.194 17.6592C249.264 17.6592 248.413 17.8515 247.643 18.2369C246.873 18.6216 246.489 19.2629 246.489 20.1612C246.489 21.0596 246.914 21.6932 247.764 22.0621C248.614 22.4309 249.858 22.808 251.494 23.1928C252.36 23.3852 253.234 23.6422 254.116 23.9629C254.999 24.2841 255.801 24.7088 256.522 25.2383C257.244 25.7678 257.829 26.4255 258.279 27.2109C258.728 27.9969 258.953 28.9511 258.953 30.0737C258.953 31.4856 258.688 32.6799 258.159 33.6582C257.629 34.6371 256.924 35.4308 256.041 36.0403C255.159 36.6503 254.132 37.091 252.961 37.3634C251.791 37.6364 250.579 37.7723 249.328 37.7723C247.531 37.7723 245.782 37.4434 244.082 36.7857C242.382 36.128 240.97 35.1902 239.848 33.9707L243.649 30.4107C244.291 31.2449 245.125 31.9339 246.152 32.4798C247.178 33.0252 248.317 33.2976 249.568 33.2976C249.985 33.2976 250.411 33.2499 250.844 33.1534C251.277 33.057 251.678 32.9046 252.047 32.6963C252.416 32.4875 252.713 32.2069 252.937 31.8539C253.162 31.5009 253.274 31.0679 253.274 30.5549C253.274 29.5924 252.833 28.9029 251.951 28.4858C251.068 28.0687 249.745 27.6516 247.98 27.2345C247.114 27.0427 246.272 26.7938 245.453 26.4891C244.636 26.1838 243.905 25.7831 243.264 25.2854C242.623 24.7889 242.109 24.1712 241.724 23.4329C241.339 22.6951 241.147 21.7814 241.147 20.6902C241.147 19.4071 241.411 18.301 241.941 17.3703C242.47 16.4402 243.167 15.6783 244.034 15.0847C244.9 14.4911 245.878 14.0499 246.969 13.7616C248.06 13.4728 249.183 13.3286 250.338 13.3286C252.006 13.3286 253.634 13.6169 255.222 14.1946C256.81 14.7718 258.069 15.6537 259 16.8408L255.246 20.1607L255.247 20.1612Z" fill="#57A695"/>
<path fill-rule="evenodd" clip-rule="evenodd" d="M172.202 5.51978H188.564V9.38334H172.202V5.51978Z" fill="black" stroke="black" stroke-width="0.169255" stroke-miterlimit="22.9256"/>
<path fill-rule="evenodd" clip-rule="evenodd" d="M172.202 41.6216H188.564V45.4703H172.202V41.6216Z" fill="black" stroke="black" stroke-width="0.169255" stroke-miterlimit="22.9256"/>
</svg>
