<svg width="16" height="16" viewBox="0 0 16 16" fill="none" xmlns="http://www.w3.org/2000/svg">
<path fill-rule="evenodd" clip-rule="evenodd" d="M0.28125 14.8252C0.28125 14.0364 0.640968 13.6763 1.19964 13.6763H15.0146C16.2919 13.6763 16.2017 15.9741 15.088 15.9741H1.12643C0.619215 15.9741 0.28125 15.5465 0.28125 14.8252H0.28125Z" fill="white"/>
<path fill-rule="evenodd" clip-rule="evenodd" d="M0.281515 8.14042C0.281515 7.35162 0.641233 6.99153 1.19991 6.99153H12.6631C13.9404 6.99153 13.8503 9.28931 12.7366 9.28931H1.12643C0.619215 9.28931 0.28125 8.86173 0.28125 8.14042H0.281515Z" fill="white"/>
<path fill-rule="evenodd" clip-rule="evenodd" d="M0.281515 1.45658C0.281515 0.667779 0.641233 0.307691 1.19991 0.307691H7.96027C9.23759 0.307691 9.14739 2.60547 8.03375 2.60547H1.12643C0.619215 2.60547 0.28125 2.17789 0.28125 1.45658H0.281515Z" fill="white"/>
</svg>
