<svg width="24" height="24" viewBox="0 0 24 24" fill="none" xmlns="http://www.w3.org/2000/svg">
<path fill-rule="evenodd" clip-rule="evenodd" d="M2.68243 10.8654C2.68243 8.93887 3.50719 6.52031 4.90396 5.12389L5.70592 4.32214C5.90926 4.14165 6.09929 4.01815 6.32544 3.85286C9.12848 1.82378 13.066 1.77438 15.928 3.69327C16.3594 3.98396 16.7451 4.27274 17.1043 4.63562C17.492 5.0251 17.739 5.27398 18.0754 5.72616C19.0161 6.98578 19.7534 8.74508 19.7534 10.3486C19.7534 11.9502 19.6489 13.0901 18.9515 14.4733C18.7196 14.933 18.5163 15.3358 18.216 15.7424C16.69 17.8095 14.2633 19.3408 11.6199 19.3408C9.68148 19.3408 8.79591 19.1622 7.1521 18.3091C7.02477 18.2426 6.94686 18.2103 6.81953 18.1267C5.95867 17.5682 5.82184 17.4637 5.1035 16.7493C4.21223 15.8621 3.5471 14.743 3.14802 13.5499C2.88957 12.7767 2.68243 11.707 2.68243 10.8654ZM0.84858 10.3505C0.84858 12.8071 1.16594 14.1161 2.26245 16.0958C3.91387 19.0767 7.47706 21.2331 11.331 21.2331C13.562 21.2331 15.5612 20.4788 17.2544 19.3085C17.5053 19.1356 17.6668 18.9608 17.9177 18.8278L21.7697 22.6504C22.737 23.6288 23.4743 22.6637 23.4743 22.1488C23.4743 21.5219 22.9841 21.3186 22.6667 20.9519L21.6367 19.9202C21.6291 19.9126 21.6158 19.8993 21.6082 19.8917L19.2346 17.4542C22.6268 13.5518 22.4044 7.30687 18.6759 3.57928C18.292 3.1955 17.7808 2.70343 17.3343 2.40135C15.2344 0.982127 13.6456 0.444458 10.8711 0.444458C8.60018 0.444458 5.76863 1.60339 4.24073 3.1518C4.09821 3.29809 4.02979 3.31899 3.89867 3.43869C3.76564 3.55838 3.76754 3.61538 3.64022 3.75217C2.04391 5.48107 0.84668 7.88443 0.84668 10.3524L0.84858 10.3505Z" fill="white"/>
</svg>
