<svg width="25" height="25" viewBox="0 0 25 25" fill="none" xmlns="http://www.w3.org/2000/svg">
<path fill-rule="evenodd" clip-rule="evenodd" d="M2.15113 10.1934C2.15113 9.54656 3.22152 9.78705 4.104 9.78705C4.77852 9.78705 9.26342 9.86997 9.57343 9.72071C10.2217 9.40826 10.3258 8.41609 10.6706 7.33992L12.0376 2.93653C12.1255 2.66047 12.1677 2.2001 12.5016 2.2001C12.8769 2.2001 13.0424 3.19896 13.2095 3.76687L14.3 7.2388C15.2662 10.2549 14.5622 9.78732 18.6208 9.78732L21.941 9.78705C22.6122 9.78384 22.8523 9.70947 22.8523 10.1937C22.8523 10.4208 22.3608 10.6947 22.1734 10.8421L19.8401 12.6138C19.3116 13.0241 18.8124 13.3708 18.2856 13.7734C16.4238 15.1968 16.6181 14.7442 17.962 18.941C18.1491 19.5258 18.3121 20.1004 18.4993 20.6852C18.6591 21.1846 19.6815 23.6408 18.2116 22.475C16.6968 21.2734 14.9423 20.0501 13.4596 18.8846C12.3687 18.027 12.227 18.3413 10.7919 19.456L7.62004 21.8456C7.2162 22.1631 5.99261 23.3171 5.99261 22.4552C5.99261 21.9751 8.07581 15.9969 8.07581 15.4777C8.07581 14.5829 7.71078 14.5441 6.75607 13.8028L2.48942 10.588C2.35832 10.4986 2.15216 10.3905 2.15216 10.1937L2.15113 10.1934ZM8.33544 7.61919C6.55608 7.61919 4.77672 7.61946 2.99737 7.61919C1.9406 7.61919 1.46453 7.65691 0.867127 8.17988C-0.258273 9.16537 -0.344388 11.0925 0.940903 12.1304C2.11514 13.0787 3.70813 14.2092 4.96823 15.1877L5.79673 15.8161L5.30061 17.3997C5.03764 18.2201 3.84386 21.8033 3.84386 22.387C3.84386 24.3329 5.59494 25.3312 6.96352 24.8885C7.44602 24.7322 7.77993 24.4653 8.15909 24.1681L12.5016 20.8968L16.8441 24.1681C17.5913 24.7544 18.3933 25.2761 19.5419 24.836C20.4827 24.4757 21.1593 23.6357 21.1593 22.387C21.1593 21.7439 20.457 19.922 20.2341 19.082L19.4583 16.6376C19.3802 16.3711 19.32 16.0627 19.2062 15.8161C19.3283 15.7307 19.4416 15.6317 19.5779 15.5253L22.4053 13.3869C22.6752 13.1745 22.9176 13.0019 23.1952 12.7863C24.0707 12.1063 25 11.6978 25 10.058C25 9.28735 24.5527 8.54529 24.1358 8.17988C23.5384 7.65691 23.0623 7.61919 22.0055 7.61919C20.2262 7.61946 18.4468 7.61919 16.6677 7.61919C16.534 7.32922 16.4143 6.86162 16.3017 6.50985L15.2434 3.14037C15.012 2.38173 14.8585 1.56397 14.4467 0.988569C13.7606 0.0301014 12.473 -0.282611 11.3705 0.27781C10.3713 0.785801 10.0675 1.93874 9.76725 3.08045C9.56931 3.83374 9.28115 4.59479 9.0588 5.32401C8.93592 5.7266 8.84235 6.06821 8.71742 6.45903C8.61357 6.78351 8.47168 7.32307 8.33518 7.61919H8.33544Z" fill="#02886B"/>
</svg>
