<svg width="22" height="18" viewBox="0 0 22 18" fill="none" xmlns="http://www.w3.org/2000/svg">
<path fill-rule="evenodd" clip-rule="evenodd" d="M18.6484 3.86159H19.293C19.2569 3.99646 19.0858 4.18077 18.9982 4.29717C18.6277 4.79078 18.4199 5.11352 18.2797 5.81215C18.0494 6.9613 18.5265 8.84284 17.6421 11.1437C17.1903 12.3192 16.4954 13.4446 15.565 14.264C14.731 14.9984 13.7715 15.5454 12.7251 15.9347C12.1294 16.1565 11.5741 16.3084 10.9461 16.433C9.24524 16.7705 7.34366 16.7807 5.62222 16.4932C4.83523 16.3617 4.62374 16.2867 3.94726 16.0629C3.76339 16.0021 3.5868 15.9013 3.39454 15.8853C3.47966 15.7692 3.59912 15.7696 3.74342 15.7189C5.47438 15.1105 6.36739 14.6311 7.99158 13.9095C8.23966 13.7993 8.44855 13.6689 8.7166 13.5605C8.84913 13.5068 8.95236 13.4514 9.09497 13.3805L9.453 13.1799L7.86334 13.051C7.26209 13.0201 6.75622 13.0076 6.26361 12.8891C5.50406 12.7068 4.91027 12.277 4.43894 11.7068C4.36334 11.6153 4.28382 11.532 4.25377 11.4195C4.90878 11.4195 6.39054 10.9544 7.13796 10.7376C7.22177 10.7134 7.24996 10.7089 7.33993 10.6818C7.40321 10.6628 7.36233 10.6809 7.43625 10.6492C7.55124 10.5999 7.46518 10.6412 7.5195 10.6035C6.80046 10.4362 4.93286 9.99944 4.35345 9.73119C3.94278 9.5409 3.49086 9.16949 3.22803 8.83743C2.98032 8.52421 2.57003 7.9321 2.53512 7.51162L4.06374 7.70153C4.34654 7.74164 4.56177 7.7463 4.84811 7.7767C5.08686 7.80189 5.40046 7.85525 5.67169 7.85525C5.60355 7.76216 5.20875 7.46405 5.08256 7.37058C4.96664 7.28458 4.90654 7.23105 4.79435 7.14337C3.89648 6.44288 2.88494 5.76589 2.56854 4.51526C2.40744 3.87838 2.37366 3.35193 2.53512 2.65927C2.81326 2.84545 3.52054 3.61665 4.26272 4.11026C6.17363 5.38122 7.5839 6.05952 10.0468 6.36024C10.4991 6.41545 11.0372 6.48112 11.5584 6.48112C11.5584 5.35697 10.9368 4.14532 11.6183 3.01968C12.1358 2.16528 12.8933 1.63306 13.8688 1.40379C14.8914 1.1637 16.1135 1.35324 16.9298 1.97202C17.2699 2.22983 17.4856 2.47738 17.9112 2.53988C18.3518 2.60498 18.7681 2.36509 19.164 2.27274C19.1522 2.4134 18.9633 2.89619 18.912 3.05159C18.836 3.28086 18.6682 3.6228 18.6484 3.86159ZM0 15.6277C0.0961335 15.4967 1.08005 15.2324 1.26224 15.1715C1.71248 15.0216 2.10056 14.8912 2.55136 14.7423L4.746 13.9295C4.90878 13.8636 4.89496 13.9028 4.98419 13.7812C4.84456 13.7439 4.55784 13.5573 4.43371 13.4726C4.25022 13.3475 4.14886 13.2462 3.97768 13.1124C3.61686 12.8307 3.09905 12.1468 2.87822 11.7207C2.70891 11.3943 2.2583 10.2048 2.23422 9.91643C2.33222 9.93919 2.33315 9.94964 2.44907 9.95934L1.95795 9.33384C1.21819 8.31248 0.990267 7.11819 1.12336 5.88621C1.13773 5.75432 1.16014 5.76328 1.16014 5.57934C1.28464 5.63904 1.48643 5.71701 1.63277 5.75115L1.29379 4.84433C1.21203 4.56749 1.11701 4.11996 1.11701 3.77577C1.11701 2.06455 1.45992 1.63604 2.19128 0.254456C2.29395 0.323293 2.48024 0.576625 2.57208 0.690047C3.04603 1.27507 3.57019 1.80487 4.11339 2.3274C4.35513 2.56002 5.19139 3.16911 5.43126 3.32917C6.49881 4.04142 8.7194 5.02099 10.0117 5.02099C10.0117 4.72382 9.96857 4.5854 9.96857 4.33393C9.96857 4.02687 10.0341 3.64164 10.1142 3.32003C10.3837 2.23934 11.0979 1.33495 12.0223 0.760937C13.5712 -0.200728 15.955 -0.30594 17.495 0.762991C17.6645 0.880518 17.9883 1.09094 18.0897 1.24224C18.3372 1.12359 18.6439 1.06613 18.934 0.969499L21.3125 0.125734C21.2227 0.510213 21.0456 0.901965 20.9201 1.27973C20.8313 1.54761 20.5563 2.23581 20.539 2.44455C21.0743 2.44455 21.4559 2.40164 22 2.40164L20.0785 5.03331C19.951 5.2027 19.8106 5.38943 19.7219 5.57878C19.2032 6.68819 20.2655 10.6682 17.4588 14.1382L17.0487 14.6302C16.8894 14.791 16.7569 14.9191 16.5966 15.0803L15.0685 16.2584C14.0947 16.8348 13.0004 17.3215 11.8769 17.5777C9.2122 18.1849 6.02113 18.1817 3.42086 17.2762C2.69827 17.0245 1.9096 16.6309 1.23107 16.2867C1.06661 16.2034 0.975708 16.1354 0.816294 16.0571C0.616187 15.9588 0.18704 15.6777 0 15.6277Z" fill="#005454"/>
</svg>
