<svg width="25" height="25" viewBox="0 0 25 25" fill="none" xmlns="http://www.w3.org/2000/svg">
<path fill-rule="evenodd" clip-rule="evenodd" d="M2.49236 20.7472V17.6349C2.49236 17.1224 2.80847 16.7013 3.19331 16.7013H21.7297C22.1145 16.7013 22.4306 17.1224 22.4306 17.6349V20.7472C22.4306 21.2597 22.1145 21.6808 21.7297 21.6808H3.19331C2.80847 21.6808 2.49236 21.2597 2.49236 20.7472ZM0 17.2201V21.162C0 23.0756 1.44484 25 2.88155 25H22.0411C23.4779 25 24.9227 23.0756 24.9227 21.162V17.2201C24.9227 15.3065 23.4779 13.3821 22.0411 13.3821H2.88155C1.44484 13.3821 0 15.3065 0 17.2201H0Z" fill="white"/>
<path fill-rule="evenodd" clip-rule="evenodd" d="M2.57048 7.36507V4.25287C2.57048 3.74028 2.88659 3.31925 3.27144 3.31925H21.8078C22.1926 3.31925 22.5087 3.74028 22.5087 4.25287V7.36507C22.5087 7.87766 22.1926 8.2987 21.8078 8.2987H3.27144C2.88659 8.2987 2.57048 7.87766 2.57048 7.36507ZM0.078125 3.83801V7.77993C0.078125 9.69353 1.52296 11.6183 2.95968 11.6183H22.1193C23.556 11.6183 25.0008 9.69392 25.0008 7.77993V3.83801C25.0008 1.92441 23.556 0 22.1193 0H2.95968C1.52296 0 0.078125 1.92441 0.078125 3.83801Z" fill="white"/>
</svg>
