<svg width="23" height="18" viewBox="0 0 23 18" fill="none" xmlns="http://www.w3.org/2000/svg">
<path fill-rule="evenodd" clip-rule="evenodd" d="M1.96424 9.0441C1.96424 8.29886 2.00602 7.67611 2.00583 6.9683C2.00564 6.57117 2.09208 4.79464 2.15323 4.43067C2.60847 1.72111 3.86532 2.16687 5.38784 1.94532L6.33205 1.88774C6.49441 1.88265 6.66999 1.88957 6.83368 1.89018C7.07539 1.89119 7.13865 1.85579 7.33186 1.84481C7.65446 1.82629 8.00619 1.85681 8.33224 1.84644L9.32955 1.80086C9.66231 1.80086 9.99525 1.80046 10.3282 1.80086C10.7219 1.80147 10.9468 1.7555 11.3267 1.75651C11.7068 1.75753 11.9262 1.8031 12.2837 1.80107L16.697 1.93107C16.8691 1.94613 17.0612 1.9205 17.2335 1.93575C17.8386 1.98885 18.5731 2.00004 19.0761 2.14409C20.4263 2.53064 20.589 4.08297 20.6477 5.33419C20.6688 5.78097 20.7317 6.35104 20.7311 6.88001L20.6897 12.3569C20.6513 13.118 20.5628 13.84 20.3517 14.5159C19.8208 16.2172 18.3978 15.9112 17.1465 16.0603C16.997 16.078 16.8434 16.0632 16.6931 16.065C16.4687 16.0676 16.4482 16.1057 16.2383 16.1124C14.4716 16.1685 11.4336 16.2597 9.57778 16.2007C9.36827 16.194 9.34738 16.1563 9.12311 16.1533C8.79208 16.149 8.45376 16.1537 8.12216 16.1557L6.70621 16.1126C6.48195 16.1097 6.46105 16.0719 6.25155 16.0654C6.08728 16.0601 5.91438 16.0707 5.74915 16.0684C5.52431 16.0656 5.5038 16.0269 5.2943 16.0214C4.70239 16.006 3.99873 15.9393 3.52854 15.7755C2.36485 15.3706 2.23604 14.1981 2.10033 13.0956C2.03669 12.5782 1.96424 9.46118 1.96424 9.0441ZM22.0211 7.5107V10.1497C22.013 10.796 21.9994 11.335 21.9816 11.564C21.9674 11.7453 21.986 11.9532 21.9808 12.1374C21.9745 12.3638 21.9385 12.408 21.9379 12.6659C21.9364 13.2523 21.8173 14.0704 21.6619 14.6254C21.5051 15.1855 21.2643 15.7865 20.9295 16.1449C20.5296 16.5732 20.2678 16.8326 19.6797 17.0708C18.8873 17.3917 18.4244 17.2672 17.788 17.3597C17.6268 17.3831 17.4993 17.3927 17.2764 17.3909L15.7798 17.4806C14.4581 17.4727 12.9784 17.5685 11.618 17.5685C10.203 17.5685 8.66998 17.4751 7.28949 17.4812C7.03456 17.4822 6.96786 17.4413 6.75088 17.4344L5.17047 17.3894C3.24274 17.2204 1.75722 16.9994 1.0848 14.7035C0.888716 14.0339 0.775818 12.8407 0.756075 12.1374C0.7509 11.9532 0.769492 11.7453 0.755308 11.564C0.735373 11.3097 0.723104 10.9962 0.71582 10.6528V7.58679L0.756075 5.9069C0.7624 5.68351 0.797862 5.66337 0.799779 5.4233C0.816455 3.24089 1.5757 1.06214 3.82411 0.727459C4.33034 0.652182 4.59352 0.667847 4.78232 0.640382L6.32726 0.55778C6.80953 0.500203 8.36156 0.473347 8.87201 0.476196C9.23812 0.478027 9.47638 0.431438 9.87047 0.431641L17.0163 0.576297C17.748 0.682701 18.1629 0.596033 18.9839 0.740279C19.7836 0.881067 20.5135 1.28858 21.013 1.94328C21.718 2.86735 21.9099 4.26261 21.9369 5.46745C21.9421 5.69348 21.9806 5.73946 21.9808 5.9952C21.981 6.1602 21.9686 6.35978 21.9854 6.5203C22.0025 6.68022 22.014 7.04521 22.0211 7.5107Z" fill="#005454"/>
<path fill-rule="evenodd" clip-rule="evenodd" d="M9.91247 10.7667V6.74751C10.1787 6.93672 10.4793 7.06815 10.7687 7.25186L12.9219 8.50003C13.0783 8.59281 13.1795 8.68883 13.3662 8.73501V8.82332C13.2036 8.8695 11.1599 10.0857 10.7865 10.281L9.91247 10.7667ZM8.66406 5.99658V11.6059C8.66406 12.0014 9.06851 12.4008 9.62112 12.4008C9.86743 12.4008 11.1034 11.6112 11.4519 11.4289L13.2696 10.399C13.6685 10.1883 14.8229 9.5771 14.9887 9.2646C15.5531 8.20137 14.2044 7.73445 13.7231 7.42866C13.434 7.24494 13.1409 7.11494 12.8588 6.93265C12.1329 6.46349 10.9976 5.88346 10.2471 5.42061C9.96864 5.24869 9.6861 5.03547 9.26575 5.17708C8.94947 5.28368 8.66406 5.57951 8.66406 5.99658Z" fill="#005454"/>
</svg>
